<?xml version="1.0" encoding="UTF-8" standalone="no"?>
<svg
   xmlns:dc="http://purl.org/dc/elements/1.1/"
   xmlns:cc="http://creativecommons.org/ns#"
   xmlns:rdf="http://www.w3.org/1999/02/22-rdf-syntax-ns#"
   xmlns:svg="http://www.w3.org/2000/svg"
   xmlns="http://www.w3.org/2000/svg"
   xmlns:sodipodi="http://sodipodi.sourceforge.net/DTD/sodipodi-0.dtd"
   xmlns:inkscape="http://www.inkscape.org/namespaces/inkscape"
   sodipodi:docname="cessna-top-black-white.svg"
   inkscape:version="1.0 (4035a4fb49, 2020-05-01)"
   id="svg8"
   version="1.1"
   viewBox="0 0 210 297"
   height="297mm"
   width="210mm">
  <defs
     id="defs2" />
  <sodipodi:namedview
     inkscape:window-maximized="1"
     inkscape:window-y="-29"
     inkscape:window-x="-3208"
     inkscape:window-height="1722"
     inkscape:window-width="3200"
     inkscape:snap-global="true"
     showgrid="false"
     inkscape:document-rotation="0"
     inkscape:current-layer="layer1"
     inkscape:document-units="mm"
     inkscape:cy="417.93285"
     inkscape:cx="97.296952"
     inkscape:zoom="1.4"
     inkscape:pageshadow="2"
     inkscape:pageopacity="0.0"
     borderopacity="1.0"
     bordercolor="#666666"
     pagecolor="#ffffff"
     id="base" />
  <metadata
     id="metadata5">
    <rdf:RDF>
      <cc:Work
         rdf:about="">
        <dc:format>image/svg+xml</dc:format>
        <dc:type
           rdf:resource="http://purl.org/dc/dcmitype/StillImage" />
        <dc:title></dc:title>
      </cc:Work>
    </rdf:RDF>
  </metadata>
  <g
     id="layer1"
     inkscape:groupmode="layer"
     inkscape:label="Layer 1">
    <path
       id="path855"
       d="m 395.9798,101.26779 -1.13642,0.37881"
       style="fill:#000000;stroke:none;stroke-opacity:1;stroke-linejoin:miter;stroke-linecap:butt;stroke-width:1px" />
    <path
       id="path857"
       d="m 399.26279,65.154839 0.63135,0.757615"
       style="fill:#000000;stroke:none;stroke-opacity:1;stroke-linejoin:miter;stroke-linecap:butt;stroke-width:1px" />
    <path
       id="path859"
       d="m 366.43284,46.340748 7.57614,22.475894"
       style="fill:#000000;stroke:none;stroke-opacity:1;stroke-linejoin:miter;stroke-linecap:butt;stroke-width:1px" />
    <g
       style="fill:#ffffff;fill-opacity:1;stroke-width:1;stroke-miterlimit:4;stroke-dasharray:none;stroke:#000000;stroke-opacity:1"
       transform="translate(2.8348214,-3.9687496)"
       id="g933">
      <g
         style="fill:#ffffff;fill-opacity:1;stroke-width:1;stroke-miterlimit:4;stroke-dasharray:none;stroke:#000000;stroke-opacity:1"
         id="g853">
        <path
           sodipodi:nodetypes="ccsccscccscccccccc"
           id="path847"
           d="m 105.45535,26.765439 5.66965,0.07087 c 0,0 2.64583,-0.94494 2.64583,4.535715 0,5.480653 0.56697,20.221725 0.56697,20.221725 l 83.53273,3.023809 c 0,0 3.59078,0.18899 4.34673,4.913691 0.75595,4.724702 0.37798,15.686011 0.37798,15.686011 l -52.72768,5.480656 -36.4747,-0.944941 c 0,0 0.75595,5.291666 0.56696,12.095239 -0.18899,6.80357 -4.53571,32.883926 -4.53571,32.883926 l 25.89136,5.85863 0.37798,12.6622 -25.89137,3.59078 -3.02381,-6.80357 -1.08668,15.11904 h -0.99219 l -1.13392,-15.11904"
           style="fill:#ffffff;fill-opacity:1;stroke:#000000;stroke-width:1;stroke-linecap:butt;stroke-linejoin:miter;stroke-opacity:1;stroke-miterlimit:4;stroke-dasharray:none" />
        <path
           sodipodi:nodetypes="ccsccscccscccccccc"
           style="fill:#ffffff;fill-opacity:1;stroke:#000000;stroke-width:1;stroke-linecap:butt;stroke-linejoin:miter;stroke-opacity:1;stroke-miterlimit:4;stroke-dasharray:none"
           d="m 105.45535,26.765439 -6.236603,0.07087 c 0,0 -2.64583,-0.94494 -2.64583,4.535715 0,5.480653 -0.56697,20.221725 -0.56697,20.221725 l -83.53273,3.023809 c 0,0 -3.5907799,0.18899 -4.3467299,4.913691 -0.75595,4.724702 -0.37798,15.686011 -0.37798,15.686011 l 52.7276799,5.480656 36.4747,-0.944941 c 0,0 -0.75595,5.291666 -0.56696,12.095239 0.18899,6.80357 4.535713,32.883926 4.535713,32.883926 l -25.891363,5.85863 -0.37798,12.6622 25.891373,3.59078 3.02381,-6.80357 1.13392,15.11904 h 0.99219 l 1.08668,-15.11904"
           id="path849" />
      </g>
      <g
         style="fill:#ffffff;fill-opacity:1;stroke-width:1;stroke-miterlimit:4;stroke-dasharray:none;stroke:#000000;stroke-opacity:1"
         id="g923"
         transform="translate(-0.29998334)">
        <path
           id="path861"
           d="m 105.53805,17.405928 c 0,0 -2.20497,3.274051 -2.23838,5.445616 -0.0334,2.171565 0.0334,2.939965 0.0334,2.939965 l 0.93544,-0.06682 0.0334,1.002259 1.15342,0.03849 v 0"
           style="fill:#ffffff;fill-opacity:1;stroke:#000000;stroke-width:1;stroke-linecap:butt;stroke-linejoin:miter;stroke-opacity:1;stroke-miterlimit:4;stroke-dasharray:none" />
        <path
           style="fill:#ffffff;fill-opacity:1;stroke:#000000;stroke-width:1;stroke-linecap:butt;stroke-linejoin:miter;stroke-opacity:1;stroke-miterlimit:4;stroke-dasharray:none"
           d="m 105.53805,17.405928 c 0,0 2.20497,3.274051 2.23838,5.445616 0.0334,2.171565 -0.0334,2.939965 -0.0334,2.939965 l -0.93544,-0.06682 -0.0334,1.002259 -1.15342,0.03849 v 0"
           id="path863" />
        <path
           id="path867"
           d="m 103.26626,23.319266 -12.394621,0.300678 c 0,0 -3.040192,0.167044 0.46772,0.835217 3.507915,0.668174 11.960311,0.7684 11.960311,0.7684 z"
           style="fill:#ffffff;fill-opacity:1;stroke:#000000;stroke-width:1;stroke-linecap:butt;stroke-linejoin:miter;stroke-opacity:1;stroke-miterlimit:4;stroke-dasharray:none" />
        <path
           style="fill:#ffffff;fill-opacity:1;stroke:#000000;stroke-width:1;stroke-linecap:butt;stroke-linejoin:miter;stroke-opacity:1;stroke-miterlimit:4;stroke-dasharray:none"
           d="m 107.79807,23.319266 12.39463,0.300678 c 0,0 3.04019,0.167044 -0.46772,0.835217 -3.50792,0.668174 -11.96032,0.7684 -11.96032,0.7684 z"
           id="path869" />
      </g>
    </g>
  </g>
</svg>
